<svg height="384pt" viewBox="0 0 384 384" width="384pt" xmlns="http://www.w3.org/2000/svg"><path d="m304 0h-224c-44.113281 0-80 35.886719-80 80v224c0 44.113281 35.886719 80 80 80h224c44.113281 0 80-35.886719 80-80v-224c0-44.113281-35.886719-80-80-80zm48 304c0 26.472656-21.527344 48-48 48h-224c-26.472656 0-48-21.527344-48-48v-224c0-26.472656 21.527344-48 48-48h224c26.472656 0 48 21.527344 48 48zm0 0"/><path d="m192 64c-65.152344 0-118.976562 48.960938-126.886719 112h-1.113281v32h1.113281c7.910157 63.039062 61.734375 112 126.886719 112 70.574219 0 128-57.425781 128-128s-57.425781-128-128-128zm0 224c-47.472656 0-86.902344-34.671875-94.550781-80h46.550781v32h96v-96h-96v32h-46.550781c7.648437-45.328125 47.078125-80 94.550781-80 52.9375 0 96 43.0625 96 96s-43.0625 96-96 96zm-16-80v-32h32v32zm0 0"/></svg>